# Blender v2.79 (sub 0) OBJ File: 'pipe.blend'
# www.blender.org
mtllib pipe.mtl
o Cylinder
v 0.000000 -11.612002 -1.000000
v 0.000000 -0.920471 -1.000000
v 0.195090 -11.612002 -0.980785
v 0.195090 -0.920471 -0.980785
v 0.382683 -11.612002 -0.923880
v 0.382683 -0.920471 -0.923880
v 0.555570 -11.612002 -0.831470
v 0.555570 -0.920471 -0.831470
v 0.707107 -11.612002 -0.707107
v 0.707107 -0.920471 -0.707107
v 0.831470 -11.612002 -0.555570
v 0.831470 -0.920471 -0.555570
v 0.923880 -11.612002 -0.382683
v 0.923880 -0.920471 -0.382683
v 0.980785 -11.612002 -0.195090
v 0.980785 -0.920471 -0.195090
v 1.000000 -11.612002 -0.000000
v 1.000000 -0.920471 -0.000000
v 0.980785 -11.612002 0.195090
v 0.980785 -0.920471 0.195090
v 0.923880 -11.612002 0.382683
v 0.923880 -0.920471 0.382683
v 0.831470 -11.612002 0.555570
v 0.831470 -0.920471 0.555570
v 0.707107 -11.612002 0.707107
v 0.707107 -0.920471 0.707107
v 0.555570 -11.612002 0.831470
v 0.555570 -0.920471 0.831470
v 0.382683 -11.612002 0.923880
v 0.382683 -0.920471 0.923880
v 0.195090 -11.612002 0.980785
v 0.195090 -0.920471 0.980785
v -0.000000 -11.612002 1.000000
v -0.000000 -0.920471 1.000000
v -0.195091 -11.612002 0.980785
v -0.195091 -0.920471 0.980785
v -0.382684 -11.612002 0.923879
v -0.382684 -0.920471 0.923879
v -0.555571 -11.612002 0.831469
v -0.555571 -0.920471 0.831469
v -0.707107 -11.612002 0.707106
v -0.707107 -0.920471 0.707106
v -0.831470 -11.612002 0.555570
v -0.831470 -0.920471 0.555570
v -0.923880 -11.612002 0.382683
v -0.923880 -0.920471 0.382683
v -0.980785 -11.612002 0.195089
v -0.980785 -0.920471 0.195089
v -1.000000 -11.612002 -0.000001
v -1.000000 -0.920471 -0.000001
v -0.980785 -11.612002 -0.195091
v -0.980785 -0.920471 -0.195091
v -0.923879 -11.612002 -0.382684
v -0.923879 -0.920471 -0.382684
v -0.831469 -11.612002 -0.555571
v -0.831469 -0.920471 -0.555571
v -0.707106 -11.612002 -0.707108
v -0.707106 -0.920471 -0.707108
v -0.555569 -11.612002 -0.831470
v -0.555569 -0.920471 -0.831470
v -0.382682 -11.612002 -0.923880
v -0.382682 -0.920471 -0.923880
v -0.195089 -11.612002 -0.980786
v -0.195089 -0.920471 -0.980786
v 0.252191 -0.920471 -1.267852
v -0.000000 -0.920471 -1.292690
v 0.494691 -0.920471 -1.194290
v 0.718180 -0.920471 -1.074833
v 0.914070 -0.920471 -0.914070
v 1.074833 -0.920471 -0.718180
v 1.194290 -0.920471 -0.494691
v 1.267852 -0.920471 -0.252191
v 1.292691 -0.920471 -0.000000
v 1.267852 -0.920471 0.252191
v 1.194290 -0.920471 0.494691
v 1.074833 -0.920471 0.718180
v 0.914070 -0.920471 0.914070
v 0.718180 -0.920471 1.074833
v 0.494691 -0.920471 1.194291
v 0.252191 -0.920471 1.267852
v -0.000000 -0.920471 1.292691
v -0.252192 -0.920471 1.267852
v -0.494692 -0.920471 1.194290
v -0.718181 -0.920471 1.074833
v -0.914071 -0.920471 0.914070
v -1.074833 -0.920471 0.718180
v -1.194291 -0.920471 0.494690
v -1.267852 -0.920471 0.252190
v -1.292691 -0.920471 -0.000001
v -1.267852 -0.920471 -0.252193
v -1.194290 -0.920471 -0.494693
v -1.074832 -0.920471 -0.718182
v -0.914069 -0.920471 -0.914071
v -0.718179 -0.920471 -1.074834
v -0.494690 -0.920471 -1.194291
v -0.252189 -0.920471 -1.267852
v 0.252191 0.006350 -1.267852
v -0.000000 0.006350 -1.292690
v 0.494691 0.006350 -1.194290
v 0.718180 0.006350 -1.074833
v 0.914070 0.006350 -0.914070
v 1.074833 0.006350 -0.718180
v 1.194290 0.006350 -0.494691
v 1.267852 0.006350 -0.252191
v 1.292690 0.006350 -0.000000
v 1.267852 0.006350 0.252191
v 1.194290 0.006350 0.494691
v 1.074833 0.006350 0.718180
v 0.914070 0.006350 0.914070
v 0.718180 0.006350 1.074833
v 0.494691 0.006350 1.194291
v 0.252191 0.006350 1.267852
v -0.000001 0.006350 1.292691
v -0.252192 0.006350 1.267852
v -0.494692 0.006350 1.194290
v -0.718181 0.006350 1.074833
v -0.914071 0.006350 0.914070
v -1.074834 0.006350 0.718180
v -1.194291 0.006350 0.494690
v -1.267852 0.006350 0.252190
v -1.292691 0.006350 -0.000001
v -1.267852 0.006350 -0.252193
v -1.194290 0.006350 -0.494693
v -1.074832 0.006350 -0.718182
v -0.914069 0.006350 -0.914071
v -0.718179 0.006350 -1.074834
v -0.494690 0.006350 -1.194291
v -0.252190 0.006350 -1.267852
vt 0.999825 0.198867
vt 0.000175 0.198867
vt 0.000175 0.217108
vt 0.999825 0.217108
vt 0.000175 0.234648
vt 0.999825 0.234648
vt 0.000175 0.250813
vt 0.999825 0.250813
vt 0.000175 0.264981
vt 0.999825 0.264981
vt 0.000175 0.250813
vt 0.999825 0.250813
vt 0.000175 0.234648
vt 0.999825 0.234648
vt 0.000175 0.217108
vt 0.999825 0.217108
vt 0.000175 0.198867
vt 0.999825 0.198867
vt 0.000175 0.180627
vt 0.999825 0.180627
vt 0.000175 0.163087
vt 0.999825 0.163087
vt 0.000175 0.146922
vt 0.999825 0.146922
vt 0.000175 0.132753
vt 0.999825 0.132753
vt 0.999825 0.132403
vt 0.000175 0.132403
vt 0.000175 0.118234
vt 0.999825 0.118234
vt 0.000175 0.102070
vt 0.999825 0.102070
vt 0.000175 0.084530
vt 0.999825 0.084530
vt 0.000175 0.066289
vt 0.999825 0.066289
vt 0.000175 0.048048
vt 0.999825 0.048048
vt 0.000175 0.030508
vt 0.999825 0.030508
vt 0.000175 0.014344
vt 0.999825 0.014344
vt 0.000175 0.000175
vt 0.999825 0.000175
vt 0.000175 0.014344
vt 0.999825 0.014344
vt 0.000175 0.030509
vt 0.999825 0.030509
vt 0.000175 0.048048
vt 0.999825 0.048048
vt 0.000175 0.066289
vt 0.999825 0.066289
vt 0.000175 0.084530
vt 0.999825 0.084530
vt 0.000175 0.102070
vt 0.999825 0.102070
vt 0.000175 0.118235
vt 0.999825 0.118235
vt 0.000175 0.132403
vt 0.999825 0.132403
vt 0.999825 0.132754
vt 0.000175 0.132753
vt 0.000175 0.146922
vt 0.999825 0.146922
vt 0.000175 0.163087
vt 0.999825 0.163087
vt 0.289100 0.326300
vt 0.302061 0.313339
vt 0.284700 0.292185
vt 0.267946 0.308939
vt 0.000175 0.180627
vt 0.999825 0.180627
vt 0.487377 0.275922
vt 0.472136 0.286105
vt 0.459176 0.299065
vt 0.448993 0.314305
vt 0.441979 0.331239
vt 0.438403 0.349216
vt 0.438403 0.367545
vt 0.441979 0.385522
vt 0.448993 0.402456
vt 0.459176 0.417696
vt 0.472136 0.430656
vt 0.487376 0.440839
vt 0.504310 0.447854
vt 0.522287 0.451430
vt 0.540616 0.451430
vt 0.558593 0.447854
vt 0.575527 0.440840
vt 0.590767 0.430656
vt 0.603728 0.417696
vt 0.613911 0.402456
vt 0.620925 0.385522
vt 0.624501 0.367545
vt 0.624501 0.349216
vt 0.620925 0.331239
vt 0.613911 0.314305
vt 0.603728 0.299065
vt 0.590767 0.286105
vt 0.575527 0.275922
vt 0.558593 0.268907
vt 0.540616 0.265332
vt 0.522287 0.265332
vt 0.504310 0.268907
vt 0.525060 0.470095
vt 0.525060 0.490991
vt 0.438403 0.490991
vt 0.438403 0.470095
vt 0.317301 0.468074
vt 0.302061 0.457891
vt 0.284700 0.479045
vt 0.304400 0.492209
vt 0.552645 0.519292
vt 0.556220 0.501315
vt 0.530032 0.493371
vt 0.525410 0.516609
vt 0.352212 0.292566
vt 0.370541 0.292566
vt 0.373223 0.265332
vt 0.349529 0.265332
vt 0.271903 0.412757
vt 0.268327 0.394780
vt 0.241093 0.397462
vt 0.245715 0.420701
vt 0.405451 0.468074
vt 0.388517 0.475088
vt 0.396462 0.501276
vt 0.418352 0.492209
vt 0.171455 0.508931
vt 0.171455 0.527260
vt 0.198690 0.529943
vt 0.198690 0.506249
vt 0.278917 0.341540
vt 0.254782 0.328640
vt 0.334235 0.475088
vt 0.326291 0.501276
vt 0.552645 0.537621
vt 0.525410 0.540303
vt 0.334235 0.296142
vt 0.326291 0.269954
vt 0.278917 0.429690
vt 0.254782 0.442591
vt 0.420691 0.457891
vt 0.438052 0.479045
vt 0.405451 0.303156
vt 0.420691 0.313339
vt 0.438052 0.292185
vt 0.418352 0.279021
vt 0.271903 0.358474
vt 0.245715 0.350530
vt 0.352212 0.478664
vt 0.349529 0.505899
vt 0.556220 0.555597
vt 0.530032 0.563542
vt 0.317301 0.303156
vt 0.304400 0.279021
vt 0.289100 0.444930
vt 0.267946 0.462291
vt 0.563235 0.484381
vt 0.573418 0.469141
vt 0.552263 0.451780
vt 0.539100 0.471480
vt 0.226275 0.527260
vt 0.226275 0.508931
vt 0.199040 0.506249
vt 0.199040 0.529943
vt 0.388517 0.296142
vt 0.396462 0.269954
vt 0.268327 0.376451
vt 0.241093 0.373768
vt 0.370541 0.478664
vt 0.373223 0.505899
vt 0.563235 0.572531
vt 0.539100 0.585432
vt 0.573418 0.587771
vt 0.552263 0.605132
vt 0.155544 0.501276
vt 0.132306 0.505899
vt 0.108612 0.505899
vt 0.085373 0.501276
vt 0.063483 0.492209
vt 0.043783 0.479046
vt 0.027028 0.462292
vt 0.013865 0.442591
vt 0.004798 0.420701
vt 0.000175 0.397462
vt 0.000175 0.373768
vt 0.004798 0.350530
vt 0.013865 0.328640
vt 0.027028 0.308939
vt 0.043782 0.292185
vt 0.063483 0.279021
vt 0.085373 0.269954
vt 0.108612 0.265332
vt 0.132306 0.265332
vt 0.155544 0.269954
vt 0.177434 0.279021
vt 0.197135 0.292185
vt 0.213889 0.308939
vt 0.227053 0.328640
vt 0.236120 0.350530
vt 0.240742 0.373768
vt 0.240742 0.397462
vt 0.236120 0.420701
vt 0.227053 0.442591
vt 0.213889 0.462291
vt 0.197135 0.479045
vt 0.177434 0.492209
vt 0.039387 0.592906
vt 0.018491 0.592906
vt 0.018491 0.506249
vt 0.039387 0.506249
vt 0.525060 0.451780
vt 0.438403 0.451780
vt 0.062060 0.592906
vt 0.062060 0.506249
vt 0.525060 0.470095
vt 0.438403 0.470095
vt 0.085640 0.592906
vt 0.085640 0.506249
vt 0.525060 0.490992
vt 0.438403 0.490992
vt 0.109220 0.592906
vt 0.109220 0.506249
vt 0.525060 0.513665
vt 0.438403 0.513665
vt 0.131893 0.592906
vt 0.131893 0.506249
vt 0.525060 0.537245
vt 0.438403 0.537245
vt 0.152789 0.592906
vt 0.152789 0.506249
vt 0.525060 0.560825
vt 0.438403 0.560825
vt 0.171105 0.592906
vt 0.171105 0.506249
vt 0.525060 0.583498
vt 0.438403 0.583498
vt 0.525060 0.604394
vt 0.525060 0.622710
vt 0.438403 0.622710
vt 0.438403 0.604394
vt 0.525060 0.604394
vt 0.438403 0.604394
vt 0.525060 0.583498
vt 0.438403 0.583498
vt 0.062060 0.592906
vt 0.085640 0.592906
vt 0.085640 0.506249
vt 0.062060 0.506249
vt 0.525060 0.622710
vt 0.438403 0.622710
vt 0.525060 0.560824
vt 0.438403 0.560824
vt 0.039387 0.592906
vt 0.039387 0.506249
vt 0.152789 0.592906
vt 0.171105 0.592906
vt 0.171105 0.506249
vt 0.152789 0.506249
vt 0.525060 0.537245
vt 0.438403 0.537245
vt 0.018491 0.592906
vt 0.018491 0.506249
vt 0.131893 0.592906
vt 0.131893 0.506249
vt 0.525060 0.513665
vt 0.438403 0.513665
vt 0.000175 0.592906
vt 0.000175 0.506249
vt 0.109219 0.592906
vt 0.109219 0.506249
vn 0.0980 0.0000 -0.9952
vn 0.2903 0.0000 -0.9569
vn 0.4714 0.0000 -0.8819
vn 0.6344 0.0000 -0.7730
vn 0.7730 0.0000 -0.6344
vn 0.8819 0.0000 -0.4714
vn 0.9569 0.0000 -0.2903
vn 0.9952 0.0000 -0.0980
vn 0.9952 0.0000 0.0980
vn 0.9569 0.0000 0.2903
vn 0.8819 0.0000 0.4714
vn 0.7730 0.0000 0.6344
vn 0.6344 0.0000 0.7730
vn 0.4714 0.0000 0.8819
vn 0.2903 0.0000 0.9569
vn 0.0980 0.0000 0.9952
vn -0.0980 0.0000 0.9952
vn -0.2903 0.0000 0.9569
vn -0.4714 0.0000 0.8819
vn -0.6344 0.0000 0.7730
vn -0.7730 0.0000 0.6344
vn -0.8819 0.0000 0.4714
vn -0.9569 0.0000 0.2903
vn -0.9952 0.0000 0.0980
vn -0.9952 0.0000 -0.0980
vn -0.9569 0.0000 -0.2903
vn -0.8819 0.0000 -0.4714
vn -0.7730 0.0000 -0.6344
vn -0.6344 0.0000 -0.7730
vn -0.4714 0.0000 -0.8819
vn 0.0000 -1.0000 0.0000
vn -0.2903 0.0000 -0.9569
vn -0.0980 0.0000 -0.9952
vn 0.0000 1.0000 0.0000
usemtl Material.001
s off
f 1/1/1 2/2/1 4/3/1 3/4/1
f 3/4/2 4/3/2 6/5/2 5/6/2
f 5/6/3 6/5/3 8/7/3 7/8/3
f 7/8/4 8/7/4 10/9/4 9/10/4
f 9/10/5 10/9/5 12/11/5 11/12/5
f 11/12/6 12/11/6 14/13/6 13/14/6
f 13/14/7 14/13/7 16/15/7 15/16/7
f 15/16/8 16/15/8 18/17/8 17/18/8
f 17/18/9 18/17/9 20/19/9 19/20/9
f 19/20/10 20/19/10 22/21/10 21/22/10
f 21/22/11 22/21/11 24/23/11 23/24/11
f 23/24/12 24/23/12 26/25/12 25/26/12
f 25/27/13 26/28/13 28/29/13 27/30/13
f 27/30/14 28/29/14 30/31/14 29/32/14
f 29/32/15 30/31/15 32/33/15 31/34/15
f 31/34/16 32/33/16 34/35/16 33/36/16
f 33/36/17 34/35/17 36/37/17 35/38/17
f 35/38/18 36/37/18 38/39/18 37/40/18
f 37/40/19 38/39/19 40/41/19 39/42/19
f 39/42/20 40/41/20 42/43/20 41/44/20
f 41/44/21 42/43/21 44/45/21 43/46/21
f 43/46/22 44/45/22 46/47/22 45/48/22
f 45/48/23 46/47/23 48/49/23 47/50/23
f 47/50/24 48/49/24 50/51/24 49/52/24
f 49/52/25 50/51/25 52/53/25 51/54/25
f 51/54/26 52/53/26 54/55/26 53/56/26
f 53/56/27 54/55/27 56/57/27 55/58/27
f 55/58/28 56/57/28 58/59/28 57/60/28
f 57/61/29 58/62/29 60/63/29 59/64/29
f 59/64/30 60/63/30 62/65/30 61/66/30
f 34/67/31 32/68/31 80/69/31 81/70/31
f 61/66/32 62/65/32 64/71/32 63/72/32
f 63/72/33 64/71/33 2/2/33 1/1/33
f 1/73/31 3/74/31 5/75/31 7/76/31 9/77/31 11/78/31 13/79/31 15/80/31 17/81/31 19/82/31 21/83/31 23/84/31 25/85/31 27/86/31 29/87/31 31/88/31 33/89/31 35/90/31 37/91/31 39/92/31 41/93/31 43/94/31 45/95/31 47/96/31 49/97/31 51/98/31 53/99/31 55/100/31 57/101/31 59/102/31 61/103/31 63/104/31
f 84/105/19 83/106/19 115/107/19 116/108/19
f 52/109/31 50/110/31 89/111/31 90/112/31
f 8/113/31 6/114/31 67/115/31 68/116/31
f 26/117/31 24/118/31 76/119/31 77/120/31
f 44/121/31 42/122/31 85/123/31 86/124/31
f 62/125/31 60/126/31 94/127/31 95/128/31
f 18/129/31 16/130/31 72/131/31 73/132/31
f 36/133/31 34/67/31 81/70/31 82/134/31
f 54/135/31 52/109/31 90/112/31 91/136/31
f 10/137/31 8/113/31 68/116/31 69/138/31
f 28/139/31 26/117/31 77/120/31 78/140/31
f 46/141/31 44/121/31 86/124/31 87/142/31
f 64/143/31 62/125/31 95/128/31 96/144/31
f 20/145/31 18/146/31 73/147/31 74/148/31
f 38/149/31 36/133/31 82/134/31 83/150/31
f 56/151/31 54/135/31 91/136/31 92/152/31
f 12/153/31 10/137/31 69/138/31 70/154/31
f 30/155/31 28/139/31 78/140/31 79/156/31
f 48/157/31 46/141/31 87/142/31 88/158/31
f 4/159/31 2/160/31 66/161/31 65/162/31
f 2/163/31 64/164/31 96/165/31 66/166/31
f 22/167/31 20/145/31 74/148/31 75/168/31
f 40/169/31 38/149/31 83/150/31 84/170/31
f 58/171/31 56/151/31 92/152/31 93/172/31
f 14/173/31 12/153/31 70/154/31 71/174/31
f 32/68/31 30/155/31 79/156/31 80/69/31
f 50/110/31 48/157/31 88/158/31 89/111/31
f 6/114/31 4/159/31 65/162/31 67/115/31
f 24/118/31 22/167/31 75/168/31 76/119/31
f 42/122/31 40/169/31 84/170/31 85/123/31
f 60/126/31 58/171/31 93/172/31 94/127/31
f 16/175/31 14/173/31 71/174/31 72/176/31
f 97/177/34 98/178/34 128/179/34 127/180/34 126/181/34 125/182/34 124/183/34 123/184/34 122/185/34 121/186/34 120/187/34 119/188/34 118/189/34 117/190/34 116/191/34 115/192/34 114/193/34 113/194/34 112/195/34 111/196/34 110/197/34 109/198/34 108/199/34 107/200/34 106/201/34 105/202/34 104/203/34 103/204/34 102/205/34 101/206/34 100/207/34 99/208/34
f 71/209/6 70/210/6 102/211/6 103/212/6
f 85/213/20 84/105/20 116/108/20 117/214/20
f 72/215/7 71/209/7 103/212/7 104/216/7
f 86/217/21 85/213/21 117/214/21 118/218/21
f 73/219/8 72/215/8 104/216/8 105/220/8
f 87/221/22 86/217/22 118/218/22 119/222/22
f 74/223/9 73/219/9 105/220/9 106/224/9
f 88/225/23 87/221/23 119/222/23 120/226/23
f 75/227/10 74/223/10 106/224/10 107/228/10
f 89/229/24 88/225/24 120/226/24 121/230/24
f 76/231/11 75/227/11 107/228/11 108/232/11
f 90/233/25 89/229/25 121/230/25 122/234/25
f 77/235/12 76/231/12 108/232/12 109/236/12
f 91/237/26 90/233/26 122/234/26 123/238/26
f 78/239/13 77/240/13 109/241/13 110/242/13
f 92/243/27 91/237/27 123/238/27 124/244/27
f 79/245/14 78/239/14 110/242/14 111/246/14
f 65/247/1 66/248/1 98/249/1 97/250/1
f 93/251/28 92/243/28 124/244/28 125/252/28
f 80/253/15 79/245/15 111/246/15 112/254/15
f 67/255/2 65/247/2 97/250/2 99/256/2
f 94/257/29 93/258/29 125/259/29 126/260/29
f 81/261/16 80/253/16 112/254/16 113/262/16
f 68/263/3 67/255/3 99/256/3 100/264/3
f 95/265/30 94/257/30 126/260/30 127/266/30
f 82/267/17 81/261/17 113/262/17 114/268/17
f 69/269/4 68/263/4 100/264/4 101/270/4
f 96/271/32 95/265/32 127/266/32 128/272/32
f 83/106/18 82/267/18 114/268/18 115/107/18
f 70/210/5 69/269/5 101/270/5 102/211/5
f 66/248/33 96/271/33 128/272/33 98/249/33
