# Blender v2.79 (sub 0) OBJ File: ''
# www.blender.org
mtllib robot.mtl
o Cube
v 0.549867 4.597278 -1.087288
v 0.549867 4.597278 0.912712
v -1.450133 4.597278 0.912712
v -1.450132 4.597278 -1.087288
v 0.549868 7.843515 -1.087287
v 0.549867 7.843515 0.912713
v -1.450133 7.843515 0.912712
v -1.450133 7.843515 -1.087288
v 0.162350 7.843515 -0.699769
v 0.162349 7.843515 0.525195
v -1.062615 7.843515 0.525194
v -1.062615 7.843515 -0.699770
v 0.162350 8.465076 -0.699769
v 0.162349 8.465076 0.525195
v -1.062615 8.465076 0.525194
v -1.062615 8.465076 -0.699770
v 0.445929 8.465076 -0.983349
v 0.445928 8.465076 0.808775
v -1.346195 8.465076 0.808774
v -1.346194 8.465076 -0.983349
v 0.445929 10.116972 -0.983349
v 0.445928 10.116972 0.808775
v -1.346195 10.116972 0.808774
v -1.346194 10.116972 -0.983349
v -0.031539 6.451244 0.912712
v -0.868726 6.451244 0.912712
v -0.031539 7.328269 0.912713
v -0.868726 7.328269 0.912712
v -0.031540 6.451244 2.563749
v -0.868727 6.451244 2.563749
v -0.031540 7.328269 2.563750
v -0.868727 7.328269 2.563749
v -0.010674 6.466375 -1.087288
v -0.889591 6.466375 -1.087288
v -0.010673 7.438512 -1.087287
v -0.889591 7.438512 -1.087288
v -0.010673 6.466375 -3.123389
v -0.889591 6.466375 -3.123389
v -0.010673 7.438512 -3.123389
v -0.889591 7.438512 -3.123389
v -1.554389 3.857857 -0.057110
v -1.450132 4.597278 -0.024576
v 0.549867 4.597278 -0.042737
v 0.232708 4.597278 0.110218
v 0.232708 4.597278 0.762637
v -1.132973 4.597278 0.762637
v -1.132973 4.597278 0.122619
v 0.287996 4.597278 -0.949330
v -1.188261 4.597278 -0.949330
v -1.188261 4.597278 -0.164912
v 0.287996 4.597278 -0.178317
v 0.232708 0.645549 0.110218
v 0.232708 0.645549 0.762637
v -1.132973 0.645549 0.762637
v -1.132973 0.645549 0.122619
v 0.287996 0.645549 -0.949330
v -1.188261 0.645549 -0.949330
v -1.188261 0.645549 -0.164912
v 0.287996 0.645549 -0.178317
vt 0.360344 0.921233
vt 0.360344 0.832351
vt 0.338061 0.843887
vt 0.338061 0.909494
vt 0.482389 0.829216
vt 0.482389 0.999399
vt 0.449415 0.966424
vt 0.449415 0.862191
vt 0.000601 0.276827
vt 0.000601 0.000601
vt 0.170783 0.000601
vt 0.170783 0.276827
vt 0.089483 0.276827
vt 0.318603 0.404849
vt 0.318603 0.575031
vt 0.160847 0.525558
vt 0.160848 0.454321
vt 0.448212 0.000601
vt 0.171986 0.000601
vt 0.171986 0.170783
vt 0.448212 0.170783
vt 0.448212 0.080356
vt 0.931337 0.000601
vt 0.931337 0.170784
vt 0.965799 0.123086
vt 0.965799 0.048298
vt 0.570658 0.829216
vt 0.570658 0.933450
vt 0.517769 0.933450
vt 0.517769 0.829216
vt 0.950975 0.845702
vt 0.950975 0.675520
vt 0.983950 0.708495
vt 0.983950 0.812728
vt 0.483592 0.999399
vt 0.483592 0.829216
vt 0.516566 0.862191
vt 0.516566 0.966424
vt 0.965338 0.338061
vt 0.965338 0.508243
vt 0.932363 0.475269
vt 0.932363 0.371035
vt 0.445890 0.459563
vt 0.372186 0.385859
vt 0.338061 0.385859
vt 0.445890 0.493688
vt 0.723362 0.902866
vt 0.827595 0.902866
vt 0.827595 0.849977
vt 0.723362 0.849977
vt 0.230288 0.912578
vt 0.334522 0.912578
vt 0.334522 0.859689
vt 0.230288 0.859689
vt 0.104835 0.924510
vt 0.000601 0.924510
vt 0.000601 0.871621
vt 0.104835 0.871621
vt 0.743672 0.816082
vt 0.591179 0.816082
vt 0.591179 0.675520
vt 0.743672 0.675520
vt 0.128965 0.704597
vt 0.024731 0.704597
vt 0.000601 0.728727
vt 0.153095 0.728727
vt 0.445890 0.312155
vt 0.445890 0.278030
vt 0.128965 0.600364
vt 0.153095 0.576234
vt 0.728727 0.153095
vt 0.576234 0.153095
vt 0.576234 0.000601
vt 0.728727 0.000601
vt 0.589976 0.675520
vt 0.589976 0.828014
vt 0.449415 0.828014
vt 0.449415 0.675520
vt 0.576234 0.294859
vt 0.728727 0.294859
vt 0.728727 0.154298
vt 0.576234 0.154298
vt 0.154298 0.716795
vt 0.306791 0.716795
vt 0.306791 0.576234
vt 0.154298 0.576234
vt 0.867976 0.175058
vt 0.796739 0.175058
vt 0.796739 0.315547
vt 0.867976 0.315547
vt 0.393723 0.942502
vt 0.393723 0.772320
vt 0.437566 0.821792
vt 0.437566 0.893029
vt 0.443196 0.494891
vt 0.443196 0.771117
vt 0.393723 0.613361
vt 0.393723 0.538734
vt 0.880662 0.276827
vt 0.880662 0.000601
vt 0.930134 0.044444
vt 0.930134 0.119071
vt 0.828798 0.939954
vt 0.828798 0.865327
vt 0.900035 0.865327
vt 0.900035 0.939954
vt 0.147668 0.870418
vt 0.076431 0.870418
vt 0.076431 0.729930
vt 0.147668 0.729930
vt 0.304915 0.858486
vt 0.230288 0.858486
vt 0.230288 0.717998
vt 0.304915 0.717998
vt 0.000601 0.870418
vt 0.075228 0.870418
vt 0.075228 0.729930
vt 0.000601 0.729930
vt 0.879459 0.000601
vt 0.796739 0.000601
vt 0.796739 0.173855
vt 0.879459 0.173855
vt 0.931161 0.614287
vt 0.931161 0.338061
vt 0.883464 0.372523
vt 0.883464 0.455243
vt 0.000601 0.404849
vt 0.000601 0.575031
vt 0.159645 0.527334
vt 0.159645 0.452546
vt 0.949773 0.951746
vt 0.949773 0.675520
vt 0.902076 0.834564
vt 0.902076 0.917284
vt 0.346443 0.246774
vt 0.429163 0.246774
vt 0.429163 0.171986
vt 0.346443 0.171986
vt 0.345240 0.246774
vt 0.345240 0.171986
vt 0.171986 0.171986
vt 0.171986 0.246774
vt 0.154298 0.717998
vt 0.229086 0.717998
vt 0.229086 0.891252
vt 0.154298 0.891252
vt 0.744875 0.675520
vt 0.827595 0.675520
vt 0.827595 0.848774
vt 0.744875 0.848774
vt 0.882261 0.338061
vt 0.808902 0.373106
vt 0.832058 0.391953
vt 0.882150 0.368022
vt 0.683032 0.338061
vt 0.566825 0.338061
vt 0.566825 0.674318
vt 0.683032 0.674318
vt 0.882261 0.526665
vt 0.882150 0.496809
vt 0.828798 0.709900
vt 0.900763 0.864125
vt 0.900873 0.834163
vt 0.851733 0.728852
vt 0.900763 0.675520
vt 0.900873 0.705376
vt 0.750982 0.338061
vt 0.684234 0.338061
vt 0.684234 0.674318
vt 0.750982 0.674318
vt 0.331545 0.838053
vt 0.331545 0.747625
vt 0.309262 0.759364
vt 0.309262 0.826111
vt 0.331545 0.746423
vt 0.331545 0.576241
vt 0.319806 0.598523
vt 0.319806 0.724140
vt 0.319806 0.404849
vt 0.319806 0.575038
vt 0.331545 0.552648
vt 0.331545 0.427026
vt 0.809957 0.527868
vt 0.808902 0.644075
vt 0.864417 0.644075
vt 0.864417 0.527868
vt 0.591179 0.817284
vt 0.591179 0.882891
vt 0.716795 0.884031
vt 0.716795 0.817284
vt 0.449415 0.338061
vt 0.565622 0.338061
vt 0.565622 0.674318
vt 0.449415 0.674318
vt 0.729930 0.000601
vt 0.795536 0.000601
vt 0.795536 0.336858
vt 0.729930 0.336858
vt 0.575031 0.000601
vt 0.449415 0.000601
vt 0.449415 0.336858
vt 0.575031 0.336858
vt 0.392521 0.494891
vt 0.338061 0.494891
vt 0.338061 0.831148
vt 0.392521 0.831148
vt 0.000601 0.403646
vt 0.000601 0.278030
vt 0.336858 0.278030
vt 0.336858 0.403646
vt 0.752184 0.338061
vt 0.807699 0.338061
vt 0.807699 0.674318
vt 0.752184 0.674318
vn 0.0000 -1.0000 0.0000
vn 0.0000 1.0000 0.0000
vn 1.0000 0.0000 0.0000
vn -0.0000 -0.0000 1.0000
vn -1.0000 -0.0000 -0.0000
vn 0.0000 0.0000 -1.0000
vn -0.0091 0.0000 -1.0000
vn 0.0091 0.0000 1.0000
usemtl Material
s off
f 1/1/1 43/2/1 51/3/1 48/4/1
f 7/5/2 6/6/2 10/7/2 11/8/2
f 1/9/3 5/10/3 6/11/3 2/12/3 43/13/3
f 3/14/4 2/15/4 25/16/4 26/17/4
f 3/18/5 7/19/5 8/20/5 4/21/5 42/22/5
f 8/23/6 5/24/6 35/25/6 36/26/6
f 10/27/3 9/28/3 13/29/3 14/30/3
f 6/31/2 5/32/2 9/33/2 10/34/2
f 8/35/2 7/36/2 11/37/2 12/38/2
f 5/39/2 8/40/2 12/41/2 9/42/2
f 16/43/1 15/44/1 19/45/1 20/46/1
f 12/47/5 11/48/5 15/49/5 16/50/5
f 9/51/6 12/52/6 16/53/6 13/54/6
f 11/55/4 10/56/4 14/57/4 15/58/4
f 19/59/4 18/60/4 22/61/4 23/62/4
f 13/63/1 16/64/1 20/65/1 17/66/1
f 15/44/1 14/67/1 18/68/1 19/45/1
f 14/69/1 13/63/1 17/66/1 18/70/1
f 21/71/2 24/72/2 23/73/2 22/74/2
f 18/75/3 17/76/3 21/77/3 22/78/3
f 20/79/5 19/80/5 23/81/5 24/82/5
f 17/83/6 20/84/6 24/85/6 21/86/6
f 26/87/1 25/88/1 29/89/1 30/90/1
f 6/91/4 7/92/4 28/93/4 27/94/4
f 7/95/4 3/96/4 26/97/4 28/98/4
f 2/99/4 6/100/4 27/101/4 25/102/4
f 29/103/4 31/104/4 32/105/4 30/106/4
f 27/107/2 28/108/2 32/109/2 31/110/2
f 25/111/3 27/112/3 31/113/3 29/114/3
f 28/115/5 26/116/5 30/117/5 32/118/5
f 34/119/5 36/120/5 40/121/5 38/122/5
f 4/123/6 8/124/6 36/125/6 34/126/6
f 1/127/6 4/128/6 34/129/6 33/130/6
f 5/131/6 1/132/6 33/133/6 35/134/6
f 39/135/6 37/136/6 38/137/6 40/138/6
f 33/139/1 34/140/1 38/141/1 37/142/1
f 36/143/2 35/144/2 39/145/2 40/146/2
f 35/147/3 33/148/3 37/149/3 39/150/3
f 43/151/1 2/152/1 45/153/1 44/154/1
f 47/155/7 44/156/7 52/157/7 55/158/7
f 2/152/1 3/159/1 46/160/1 45/153/1
f 42/161/1 43/162/1 44/163/1 47/164/1
f 3/165/1 42/161/1 47/164/1 46/166/1
f 50/167/5 49/168/5 57/169/5 58/170/5
f 42/171/1 4/172/1 49/173/1 50/174/1
f 4/175/1 1/176/1 48/177/1 49/178/1
f 43/179/1 42/180/1 50/181/1 51/182/1
f 55/183/1 52/184/1 53/185/1 54/186/1
f 56/187/1 59/188/1 58/189/1 57/190/1
f 45/191/4 46/192/4 54/193/4 53/194/4
f 48/195/3 51/196/3 59/197/3 56/198/3
f 49/199/6 48/200/6 56/201/6 57/202/6
f 46/203/5 47/204/5 55/205/5 54/206/5
f 51/207/8 50/208/8 58/209/8 59/210/8
f 44/211/3 45/212/3 53/213/3 52/214/3
