# Blender v2.79 (sub 0) OBJ File: ''
# www.blender.org
mtllib 4.mtl
o Text
v 1.095494 0.856902 -0.853750
v 1.095494 0.856902 -0.664405
v 0.938423 0.856902 -0.664405
v 0.938423 0.856902 -0.182435
v 0.727561 0.856902 -0.182435
v 0.727561 0.856902 -0.664405
v 0.105734 0.856902 -0.664405
v 0.105734 0.856902 -0.761229
v 0.848054 0.856902 -1.669226
v 0.938423 0.856902 -1.669226
v 0.938423 0.856902 -0.853750
v 0.727561 0.856902 -0.853750
v 0.727561 0.856902 -1.271170
v 0.723258 0.856902 -1.271170
v 0.387600 0.856902 -0.853750
v 1.095494 0.043578 -0.853750
v 1.095494 0.043578 -0.664405
v 0.938423 0.043578 -0.664405
v 0.938423 0.043578 -0.182435
v 0.727561 0.043578 -0.182435
v 0.727561 0.043578 -0.664405
v 0.105734 0.043578 -0.664405
v 0.105734 0.043578 -0.761229
v 0.848054 0.043578 -1.669226
v 0.938423 0.043578 -1.669226
v 0.938423 0.043578 -0.853750
v 0.727561 0.043578 -0.853750
v 0.727561 0.043578 -1.271170
v 0.723258 0.043578 -1.271170
v 0.387600 0.043578 -0.853750
v 1.095494 0.043578 -0.853750
v 1.192318 0.140402 -0.950574
v 1.095494 0.043578 -0.664405
v 1.192318 0.140402 -0.567580
v 0.938423 0.043578 -0.664405
v 1.035247 0.140402 -0.567580
v 0.938423 0.043578 -0.182435
v 1.035247 0.140402 -0.085610
v 0.727561 0.043578 -0.182435
v 0.630737 0.140402 -0.085610
v 0.727561 0.043578 -0.664405
v 0.630737 0.140402 -0.567580
v 0.105734 0.043578 -0.664405
v 0.008910 0.140402 -0.567580
v 0.105734 0.043578 -0.761229
v 0.008910 0.140402 -0.795770
v 0.848054 0.043578 -1.669226
v 0.802148 0.140402 -1.766050
v 0.938423 0.043578 -1.669226
v 1.035247 0.140402 -1.766050
v 0.938423 0.043578 -0.853750
v 1.035247 0.140402 -0.950574
v 1.192318 0.140402 -0.950574
v 1.192318 0.760078 -0.950574
v 1.192318 0.140402 -0.567580
v 1.192318 0.760078 -0.567580
v 1.035247 0.140402 -0.567580
v 1.035247 0.760078 -0.567580
v 1.035247 0.140402 -0.085610
v 1.035247 0.760078 -0.085610
v 0.630737 0.140402 -0.085610
v 0.630737 0.760078 -0.085610
v 0.630737 0.140402 -0.567580
v 0.630737 0.760078 -0.567580
v 0.008910 0.140402 -0.567580
v 0.008910 0.760078 -0.567580
v 0.008910 0.140402 -0.795770
v 0.008910 0.760078 -0.795770
v 0.802148 0.140402 -1.766050
v 0.802148 0.760078 -1.766050
v 1.035247 0.140402 -1.766050
v 1.035247 0.760078 -1.766050
v 1.035247 0.140402 -0.950574
v 1.035247 0.760078 -0.950574
v 1.192318 0.760078 -0.950574
v 1.095494 0.856902 -0.853750
v 1.192318 0.760078 -0.567580
v 1.095494 0.856902 -0.664405
v 1.035247 0.760078 -0.567580
v 0.938423 0.856902 -0.664405
v 1.035247 0.760078 -0.085610
v 0.938423 0.856902 -0.182435
v 0.630737 0.760078 -0.085610
v 0.727561 0.856902 -0.182435
v 0.630737 0.760078 -0.567580
v 0.727561 0.856902 -0.664405
v 0.008910 0.760078 -0.567580
v 0.105734 0.856902 -0.664405
v 0.008910 0.760078 -0.795770
v 0.105734 0.856902 -0.761229
v 0.802148 0.760078 -1.766050
v 0.848054 0.856902 -1.669226
v 1.035247 0.760078 -1.766050
v 0.938423 0.856902 -1.669226
v 1.035247 0.760078 -0.950574
v 0.938423 0.856902 -0.853750
v 0.727561 0.043578 -0.853750
v 0.630737 0.140402 -0.950574
v 0.727561 0.043578 -1.271170
v 0.630737 0.140402 -1.174346
v 0.723258 0.043578 -1.271170
v 0.769645 0.140402 -1.174346
v 0.387600 0.043578 -0.853750
v 0.589704 0.140402 -0.950574
v 0.630737 0.140402 -0.950574
v 0.630737 0.760078 -0.950574
v 0.630737 0.140402 -1.174346
v 0.630737 0.760078 -1.174346
v 0.769645 0.140402 -1.174346
v 0.769645 0.760078 -1.174346
v 0.589704 0.140402 -0.950574
v 0.589704 0.760078 -0.950574
v 0.630737 0.760078 -0.950574
v 0.727561 0.856902 -0.853750
v 0.630737 0.760078 -1.174346
v 0.727561 0.856902 -1.271170
v 0.769645 0.760078 -1.174346
v 0.723258 0.856902 -1.271170
v 0.589704 0.760078 -0.950574
v 0.387600 0.856902 -0.853750
vn 0.0000 1.0000 -0.0000
vn 0.0000 0.0000 1.0000
vn 0.0000 -1.0000 -0.0000
vn 0.0000 0.0000 -1.0000
vn 0.4082 -0.8165 -0.4082
vn 0.4082 -0.8165 0.4082
vn -0.4082 -0.8165 0.4082
vn -0.6457 -0.7279 -0.2304
vn -0.2872 -0.7420 -0.6058
vn 0.7071 0.0000 -0.7071
vn 0.7071 0.0000 0.7071
vn -0.7071 0.0000 0.7071
vn -0.9418 0.0000 -0.3360
vn -0.4284 0.0000 -0.9036
vn 0.4082 0.8165 -0.4082
vn 0.4082 0.8165 0.4082
vn -0.4082 0.8165 0.4082
vn -0.6457 0.7279 -0.2304
vn -0.2872 0.7420 -0.6058
vn -0.4082 -0.8165 -0.4082
vn -0.8143 -0.4585 -0.3558
vn -0.7071 0.0000 -0.7071
vn 0.9142 -0.4039 -0.0341
vn 0.9018 0.0000 -0.4321
vn 0.3577 -0.9180 -0.1714
vn -0.4082 0.8165 -0.4082
vn -0.8143 0.4585 -0.3558
vn 0.9142 0.4039 -0.0341
vn 0.3577 0.9180 -0.1714
usemtl None
s off
f 8//1 10//1 9//1
f 8//1 14//1 10//1
f 14//1 13//1 10//1
f 13//1 11//1 10//1
f 8//1 15//1 14//1
f 12//1 11//1 13//1
f 8//1 12//1 15//1
f 8//1 11//1 12//1
f 8//1 1//1 11//1
f 8//1 2//1 1//1
f 7//1 2//1 8//1
f 6//2 2//2 7//2
f 5//1 3//1 6//1
f 3//2 2//2 6//2
f 5//1 4//1 3//1
f 25//3 23//3 24//3
f 29//3 23//3 25//3
f 28//3 29//3 25//3
f 26//3 28//3 25//3
f 30//3 23//3 29//3
f 26//3 27//3 28//3
f 27//3 23//3 30//3
f 26//3 23//3 27//3
f 16//3 23//3 26//3
f 17//3 23//3 16//3
f 17//3 22//3 23//3
f 17//4 21//4 22//4
f 18//3 20//3 21//3
f 17//2 18//2 21//2
f 19//3 20//3 18//3
s 1
f 32//5 34//6 33//6 31//5
f 34//6 36//6 35//6 33//6
f 36//6 38//6 37//6 35//6
f 38//6 40//7 39//7 37//6
f 40//7 42//7 41//7 39//7
f 42//7 44//7 43//7 41//7
f 44//7 46//8 45//8 43//7
f 46//8 48//9 47//9 45//8
f 48//9 50//5 49//5 47//9
f 50//5 52//5 51//5 49//5
f 52//5 32//5 31//5 51//5
f 54//10 56//11 55//11 53//10
f 56//11 58//11 57//11 55//11
f 58//11 60//11 59//11 57//11
f 60//11 62//12 61//12 59//11
f 62//12 64//12 63//12 61//12
f 64//12 66//12 65//12 63//12
f 66//12 68//13 67//13 65//12
f 68//13 70//14 69//14 67//13
f 70//14 72//10 71//10 69//14
f 72//10 74//10 73//10 71//10
f 74//10 54//10 53//10 73//10
f 76//15 78//16 77//16 75//15
f 78//16 80//16 79//16 77//16
f 80//16 82//16 81//16 79//16
f 82//16 84//17 83//17 81//16
f 84//17 86//17 85//17 83//17
f 86//17 88//17 87//17 85//17
f 88//17 90//18 89//18 87//17
f 90//18 92//19 91//19 89//18
f 92//19 94//15 93//15 91//19
f 94//15 96//15 95//15 93//15
f 96//15 76//15 75//15 95//15
f 98//20 100//21 99//22 97//20
f 100//21 102//23 101//24 99//22
f 102//23 104//25 103//25 101//24
f 104//25 98//20 97//20 103//25
f 106//22 108//22 107//22 105//22
f 108//22 110//24 109//24 107//22
f 110//24 112//24 111//24 109//24
f 112//24 106//22 105//22 111//24
f 114//26 116//22 115//27 113//26
f 116//22 118//24 117//28 115//27
f 118//24 120//29 119//29 117//28
f 120//29 114//26 113//26 119//29
